<svg width="121" height="28" viewBox="0 0 121 28" fill="none" xmlns="http://www.w3.org/2000/svg">
<path fill-rule="evenodd" clip-rule="evenodd" d="M74.5026 3.2624H107.784C109.997 3.2624 111.807 4.2032 111.807 5.35361V22.6534C111.807 23.8039 109.997 24.7446 107.784 24.7446H74.5026C72.2895 24.7446 70.4796 23.8039 70.4796 22.6534V5.35361C70.4796 4.2032 72.2895 3.2624 74.5026 3.2624ZM9.19281 8.18418V3.2554H17.1406V8.15907C17.1406 9.41639 17.8796 10.0451 19.3577 10.0451C20.2674 10.0451 21.1429 9.75165 21.9843 9.16493V3.2554H29.932V19.5506H21.9843V12.6855C20.5971 13.7584 18.6187 14.2949 16.0491 14.2949C11.4782 14.2949 9.19281 12.258 9.19281 8.18418ZM42.28 8.05844H49.6138V19.5506H42.28V14.7475V13.4902L39.3466 19.5506H32.0128V8.05844H39.3466V13.968L42.28 8.05844ZM58.96 18.1675V24.4793H51.524V8.05844H58.7213V9.59242C59.6764 8.8548 60.4496 8.35602 61.0408 8.09622C61.6321 7.83633 62.6326 7.70642 64.0426 7.70642C65.748 7.70642 67.1409 8.29317 68.2211 9.4667C69.3012 10.6402 69.8413 12.0736 69.8413 13.7668C69.8413 15.4936 69.2956 16.9521 68.204 18.1423C67.1125 19.3326 65.5662 19.9277 63.565 19.9277C61.7457 19.9277 60.2108 19.341 58.96 18.1675ZM60.6314 12.1825C60.0857 12.1825 59.6196 12.3502 59.2329 12.6855C58.8464 13.0208 58.6531 13.4231 58.6531 13.8925C58.6531 14.3619 58.852 14.7643 59.25 15.0996C59.6479 15.4349 60.1084 15.6025 60.6314 15.6025C61.1773 15.6025 61.6434 15.4391 62.03 15.1122C62.4166 14.7852 62.6099 14.3787 62.6099 13.8925C62.6099 13.4063 62.428 12.9998 62.0641 12.6729C61.7002 12.346 61.2227 12.1825 60.6314 12.1825ZM80.1427 7.68127C81.78 7.68127 83.2923 7.95788 84.6794 8.51108C86.0665 9.06434 87.1638 9.81876 87.9711 10.7743C88.7784 11.7299 89.1819 12.7609 89.1819 13.8674C89.1819 14.9738 88.7784 16.0049 87.9711 16.9604C87.1638 17.916 86.0665 18.6704 84.6794 19.2237C83.2923 19.7769 81.78 20.0535 80.1427 20.0535C77.6868 20.0535 75.5662 19.4458 73.781 18.2303C71.996 17.0149 71.1034 15.5606 71.1034 13.8674C71.1034 12.7609 71.507 11.7299 72.3144 10.7743C73.1216 9.81876 74.2188 9.06434 75.606 8.51108C76.9932 7.95788 78.5054 7.68127 80.1427 7.68127ZM80.1086 12.3334C79.5401 12.3334 79.0512 12.4927 78.6418 12.8112C78.2325 13.1297 78.0278 13.4986 78.0278 13.9177C78.0278 14.3368 78.2325 14.7056 78.6418 15.0241C79.0512 15.3427 79.5401 15.5019 80.1086 15.5019C80.6771 15.5019 81.166 15.3427 81.5753 15.0241C81.9847 14.7056 82.1893 14.3368 82.1893 13.9177C82.1893 13.4986 81.9847 13.1297 81.5753 12.8112C81.166 12.4927 80.6771 12.3334 80.1086 12.3334ZM91.0239 19.5506V8.05844H98.46V12.7106L101.701 8.05844H110.535L105.043 13.5908L110.876 19.5506H101.905L98.4941 14.7475V19.5506H91.0239Z" fill="#FFC700"/>
<path fill-rule="evenodd" clip-rule="evenodd" d="M3.26556 0.153839H117.735L118.013 0.172156L118.31 0.230528L118.594 0.324657L118.862 0.45078L119.111 0.605728L119.342 0.785726L119.553 0.988295L119.744 1.21099L119.915 1.45199L120.066 1.70886L120.195 1.98064L120.302 2.26562L120.387 2.56256L120.45 2.86975L120.488 3.18637L120.5 3.4927V24.5073L120.488 24.8139L120.45 25.1303L120.387 25.4374L120.302 25.7344L120.195 26.0194L120.066 26.2911L119.915 26.548L119.744 26.789L119.553 27.0117L119.342 27.2143L119.111 27.3943L118.862 27.5492L118.594 27.6753L118.31 27.7695L118.013 27.8278L117.735 27.8461H3.26556L2.98694 27.8278L2.69019 27.7695L2.40657 27.6753L2.13871 27.5492L1.88898 27.3944L1.6581 27.2143L1.44721 27.0118L1.25568 26.7891L1.0848 26.548L0.934478 26.2911L0.805396 26.0194L0.697663 25.7344L0.612518 25.4374L0.55032 25.1303L0.512341 24.8139L0.5 24.5073V3.4927L0.512341 3.18637L0.55032 2.86975L0.612518 2.56256L0.697663 2.26562L0.805396 1.98064L0.934478 1.70886L1.0848 1.45199L1.25568 1.21089L1.44721 0.988215L1.6581 0.785726L1.88898 0.605648L2.13871 0.45078L2.40657 0.324657L2.69019 0.230528L2.98694 0.172156L3.26556 0.153839ZM3.29291 1.02134H117.707C118.776 1.02134 119.65 2.14147 119.65 3.51048V24.4895C119.65 25.8585 118.776 26.9786 117.707 26.9786H3.29291C2.22438 26.9786 1.34974 25.8587 1.34974 24.4895V3.51048C1.34974 2.14131 2.2242 1.02134 3.29291 1.02134Z" fill="#FFC700"/>
</svg>
