<svg width="141" height="34" viewBox="0 0 141 34" fill="none" xmlns="http://www.w3.org/2000/svg">
<path fill-rule="evenodd" clip-rule="evenodd" d="M86.8364 4.47277H125.665C128.247 4.47277 130.358 5.57036 130.358 6.91251V27.0956C130.358 28.4378 128.247 29.5354 125.665 29.5354H86.8364C84.2545 29.5354 82.1429 28.4378 82.1429 27.0956V6.91251C82.1429 5.57036 84.2545 4.47277 86.8364 4.47277ZM10.6417 10.2148V4.4646H19.9141V10.1855C19.9141 11.6524 20.7763 12.3859 22.5008 12.3859C23.5621 12.3859 24.5835 12.0436 25.5651 11.359V4.4646H34.8375V23.4756H25.5651V15.4664C23.9468 16.7181 21.6386 17.344 18.6407 17.344C13.308 17.344 10.6417 14.9676 10.6417 10.2148ZM49.2435 10.0681H57.7995V23.4756H49.2435V17.8721V16.4052L45.8211 23.4756H37.265V10.0681H45.8211V16.9626L49.2435 10.0681ZM68.7035 21.862V29.2258H60.0281V10.0681H68.425V11.8578C69.5392 10.9972 70.4413 10.4153 71.131 10.1122C71.8209 9.80902 72.9882 9.65746 74.6331 9.65746C76.6228 9.65746 78.2478 10.342 79.508 11.7111C80.7682 13.0802 81.3983 14.7524 81.3983 16.7279C81.3983 18.7424 80.7616 20.444 79.4881 21.8327C78.2147 23.2214 76.4106 23.9156 74.0759 23.9156C71.9534 23.9156 70.1627 23.2311 68.7035 21.862ZM70.6535 14.8796C70.0168 14.8796 69.4729 15.0752 69.0219 15.4664C68.5709 15.8575 68.3454 16.3269 68.3454 16.8746C68.3454 17.4222 68.5775 17.8916 69.0417 18.2828C69.506 18.674 70.0433 18.8696 70.6535 18.8696C71.2903 18.8696 71.8341 18.6789 72.2851 18.2975C72.7361 17.9161 72.9617 17.4418 72.9617 16.8746C72.9617 16.3073 72.7494 15.8331 72.3249 15.4517C71.9004 15.0703 71.3433 14.8796 70.6535 14.8796ZM93.4166 9.62811C95.3268 9.62811 97.0911 9.95082 98.7094 10.5962C100.328 11.2417 101.608 12.1218 102.55 13.2367C103.492 14.3515 103.962 15.5544 103.962 16.8453C103.962 18.1361 103.492 19.339 102.55 20.4538C101.608 21.5687 100.328 22.4488 98.7094 23.0942C97.0911 23.7396 95.3268 24.0624 93.4166 24.0624C90.5513 24.0624 88.0773 23.3534 85.9947 21.9354C83.9121 20.5174 82.8707 18.8207 82.8707 16.8453C82.8707 15.5544 83.3417 14.3515 84.2835 13.2367C85.2253 12.1218 86.5054 11.2417 88.1237 10.5962C89.7421 9.95082 91.5064 9.62811 93.4166 9.62811ZM93.3768 15.0556C92.7135 15.0556 92.1431 15.2414 91.6656 15.6131C91.188 15.9847 90.9492 16.415 90.9492 16.9039C90.9492 17.3929 91.188 17.8232 91.6656 18.1948C92.1431 18.5664 92.7135 18.7522 93.3768 18.7522C94.0401 18.7522 94.6105 18.5664 95.088 18.1948C95.5656 17.8232 95.8043 17.3929 95.8043 16.9039C95.8043 16.415 95.5656 15.9847 95.088 15.6131C94.6105 15.2414 94.0401 15.0556 93.3768 15.0556ZM106.111 23.4756V10.0681H114.787V15.4957L118.567 10.0681H128.874L122.467 16.5226L129.272 23.4756H118.806L114.827 17.8721V23.4756H106.111Z" fill="#E1E1E1"/>
<path fill-rule="evenodd" clip-rule="evenodd" d="M3.72649 0.846191H137.274L137.599 0.867561L137.945 0.935661L138.276 1.04548L138.588 1.19262L138.88 1.3734L139.149 1.58339L139.395 1.81972L139.618 2.07953L139.818 2.3607L139.993 2.66038L140.144 2.97746L140.269 3.30994L140.369 3.65637L140.441 4.01475L140.486 4.38414L140.5 4.74152V29.2585L140.486 29.6162L140.441 29.9853L140.369 30.3437L140.269 30.6902L140.144 31.0226L139.993 31.3397L139.818 31.6394L139.618 31.9206L139.395 32.1804L139.149 32.4167L138.88 32.6267L138.588 32.8074L138.276 32.9546L137.945 33.0644L137.599 33.1325L137.274 33.1539H3.72649L3.40143 33.1325L3.05523 33.0644L2.72433 32.9546L2.41183 32.8074L2.12048 32.6268L1.85112 32.4167L1.60507 32.1804L1.38163 31.9207L1.18226 31.6394L1.00689 31.3397L0.856295 31.0226L0.730606 30.6902L0.631272 30.3437L0.558706 29.9853L0.514398 29.6162L0.5 29.2585V4.74152L0.514398 4.38414L0.558706 4.01475L0.631272 3.65637L0.730606 3.30994L0.856295 2.97746L1.00689 2.66038L1.18226 2.3607L1.38163 2.07942L1.60507 1.81963L1.85112 1.58339L2.12048 1.3733L2.41183 1.19262L2.72433 1.04548L3.05523 0.935661L3.40143 0.867561L3.72649 0.846191ZM3.75839 1.85828H137.242C138.489 1.85828 139.509 3.16509 139.509 4.76228V29.2378C139.509 30.835 138.488 32.1418 137.242 32.1418H3.75839C2.51177 32.1418 1.49136 30.8352 1.49136 29.2378V4.76228C1.49136 3.1649 2.51156 1.85828 3.75839 1.85828Z" fill="#E1E1E1"/>
</svg>
