<svg width="120" height="18" viewBox="0 0 120 18" fill="none" xmlns="http://www.w3.org/2000/svg">
<path d="M30.6451 0.258545H25.3042L31.4252 9.00001L25.3042 17.7415H30.6451L36.7661 9.00001L30.6451 0.258545ZM21.4236 0.818642L18.7631 4.61928L21.8236 8.98L18.7631 13.3407H12.6621L9.6016 17.7015H21.0435L27.1645 8.96L21.4236 0.818642ZM6.12102 9.00001L0 17.7415H5.32089L11.4419 9.00001H6.12102ZM14.5024 4.61928L17.5629 0.258545H0L3.06051 4.61928H14.5024Z" fill="black"/>
<path d="M50.8685 4.05918L48.208 0.258545L35.986 17.7215H41.3269L50.8685 4.05918ZM52.9888 7.11969L48.6081 13.3607H52.0287L55.0892 17.7215H60.4301L52.9888 7.11969Z" fill="black"/>
<path d="M110.458 4.05918L107.798 0.258545L95.5759 17.7215H100.897L110.458 4.05918ZM112.579 7.11969L108.198 13.3607H111.619L114.679 17.7215H120L112.579 7.11969Z" fill="black"/>
<path d="M69.5316 0.258545H64.1907L71.632 10.8803L74.2924 7.07969L69.5316 0.258545ZM83.3339 0.258545L73.7723 13.9208L76.4327 17.7215L83.3339 7.85981L85.4342 10.8603L88.0947 7.05968L83.3339 0.258545ZM97.1162 0.258545L87.5546 13.9208L90.215 17.7215L102.457 0.258545H97.1162Z" fill="black"/>
<path d="M58.8698 0.258545H53.5289L65.771 17.7215H71.0918L58.8698 0.258545Z" fill="black"/>
</svg>
