<svg width="141" height="22" viewBox="0 0 141 22" fill="none" xmlns="http://www.w3.org/2000/svg">
<path d="M36.2526 0.801636H30.0216L37.1628 11L30.0216 21.1984H36.2526L43.3938 11L36.2526 0.801636ZM25.4942 1.45508L22.3903 5.88916L25.9609 10.9767L22.3903 16.0642H15.2725L11.7019 21.1517H25.0508L32.192 10.9533L25.4942 1.45508ZM7.64119 11L0.5 21.1984H6.7077L13.8489 11H7.64119ZM17.4195 5.88916L20.9901 0.801636H0.5L4.0706 5.88916H17.4195Z" fill="#E1E1E1"/>
<path d="M59.8466 5.23571L56.7427 0.801636L42.4837 21.175H48.7147L59.8466 5.23571ZM62.3203 8.80631L57.2094 16.0875H61.2001L64.7707 21.175H71.0018L62.3203 8.80631Z" fill="#E1E1E1"/>
<path d="M129.368 5.23571L126.264 0.801636L112.005 21.175H118.213L129.368 5.23571ZM131.842 8.80631L126.731 16.0875H130.722L134.292 21.175H140.5L131.842 8.80631Z" fill="#E1E1E1"/>
<path d="M81.6202 0.801636H75.3892L84.0706 13.1937L87.1745 8.75963L81.6202 0.801636ZM97.7229 0.801636L86.5677 16.741L89.6715 21.175L97.7229 9.66978L100.173 13.1704L103.277 8.73629L97.7229 0.801636ZM113.802 0.801636L102.647 16.741L105.751 21.175L120.033 0.801636H113.802Z" fill="#E1E1E1"/>
<path d="M69.1814 0.801636H62.9504L77.2328 21.175H83.4405L69.1814 0.801636Z" fill="#E1E1E1"/>
</svg>
