<svg width="186" height="50" viewBox="0 0 186 50" fill="none" xmlns="http://www.w3.org/2000/svg">
<path d="M13.2588 4.96705V8.05142H8.17159V32.7665H5.08722V8.05142H0V4.96705H13.2588Z" fill="#2E3451"/>
<path d="M23.5418 4.96705C24.3163 4.96705 24.9705 5.08722 25.5046 5.32756C26.0654 5.54119 26.506 5.8483 26.8265 6.24886C27.1737 6.62273 27.4273 7.07671 27.5876 7.6108C27.7478 8.11818 27.8279 8.66563 27.8279 9.25313V11.2159C27.8279 12.471 27.6009 13.419 27.147 14.0599C26.7197 14.6742 26.1455 15.1014 25.4245 15.3418C26.1455 15.6088 26.7197 16.0628 27.147 16.7037C27.6009 17.3179 27.8279 18.2526 27.8279 19.5077V28.4804C27.8279 29.2548 27.7077 29.9225 27.4674 30.4832C27.2538 31.0173 26.9467 31.458 26.5461 31.8051C26.1722 32.1256 25.7183 32.3659 25.1842 32.5261C24.6768 32.6864 24.1293 32.7665 23.5418 32.7665H17.5734V4.96705H23.5418ZM24.7435 19.1071C24.7435 18.4128 24.5433 17.8787 24.1427 17.5048C23.7688 17.1043 23.3015 16.904 22.7407 16.904H20.6577V29.6821H23.5418C23.889 29.6821 24.1694 29.602 24.383 29.4418C24.6234 29.2548 24.7435 28.9344 24.7435 28.4804V19.1071ZM24.7435 9.25313C24.7435 8.93267 24.6501 8.65228 24.4631 8.41193C24.3029 8.17159 23.9958 8.05142 23.5418 8.05142H20.6577V13.8196H22.7407C23.3015 13.8196 23.7688 13.6327 24.1427 13.2588C24.5433 12.8582 24.7435 12.3108 24.7435 11.6165V9.25313Z" fill="#2E3451"/>
<path d="M39.3223 4.7267C40.0968 4.7267 40.751 4.84688 41.2851 5.08722C41.8459 5.30085 42.2866 5.60796 42.607 6.00852C42.9542 6.38239 43.2079 6.83636 43.3681 7.37046C43.5283 7.87784 43.6084 8.42529 43.6084 9.01278V28.7207C43.6084 29.3082 43.5283 29.869 43.3681 30.4031C43.2079 30.9105 42.9542 31.3645 42.607 31.7651C42.2866 32.1389 41.8459 32.446 41.2851 32.6864C40.751 32.9 40.0968 33.0068 39.3223 33.0068H36.959C36.1846 33.0068 35.517 32.9 34.9562 32.6864C34.4221 32.446 33.9814 32.1389 33.6343 31.7651C33.3138 31.3645 33.0735 30.9105 32.9133 30.4031C32.753 29.869 32.6729 29.3082 32.6729 28.7207V9.01278C32.6729 8.42529 32.753 7.87784 32.9133 7.37046C33.0735 6.83636 33.3138 6.38239 33.6343 6.00852C33.9814 5.60796 34.4221 5.30085 34.9562 5.08722C35.517 4.84688 36.1846 4.7267 36.959 4.7267H39.3223ZM39.3223 29.9225C39.7496 29.9225 40.0567 29.8023 40.2437 29.5619C40.4306 29.3216 40.5241 29.0412 40.5241 28.7207V9.01278C40.5241 8.69233 40.4306 8.41193 40.2437 8.17159C40.0567 7.93125 39.7496 7.81108 39.3223 7.81108H36.959C36.505 7.81108 36.1846 7.93125 35.9976 8.17159C35.8374 8.41193 35.7573 8.69233 35.7573 9.01278V28.7207C35.7573 29.0412 35.8374 29.3216 35.9976 29.5619C36.1846 29.8023 36.505 29.9225 36.959 29.9225H39.3223Z" fill="#2E3451"/>
<path d="M57.1987 0V2.0429H51.3504V0H57.1987ZM56.5577 32.7665V15.1014L51.9913 19.708V32.7665H48.9069V4.96705H51.9913V15.9827L56.5577 11.2159V4.96705H59.6421V32.7665H56.5577Z" fill="#2E3451"/>
<path d="M79.5449 29.2014C79.358 30.2162 78.9173 31.0707 78.223 31.7651C77.5554 32.4327 76.5807 32.7665 75.2989 32.7665H73.1358V29.6821H75.2989C75.646 29.6821 75.9131 29.602 76.1 29.4418C76.2869 29.2815 76.4071 29.0946 76.4605 28.881L77.3818 23.9139H74.6179L70.2918 4.96705H73.4563L76.821 20.8296H77.9026L80.7867 4.96705H83.9111L79.5449 29.2014Z" fill="#2E3451"/>
<path d="M98.8044 4.96705V32.7665H95.72V8.05142H92.195L91.2737 28.921C91.2203 30.2029 90.9399 31.1642 90.4325 31.8051C89.9518 32.446 89.0706 32.7665 87.7888 32.7665H86.1064V29.6821H87.3882C87.7087 29.6821 87.9089 29.6421 87.9891 29.5619C88.0959 29.4551 88.1626 29.2415 88.1893 28.921L89.2308 4.96705H98.8044Z" fill="#2E3451"/>
<path d="M110.661 4.7267C111.435 4.7267 112.09 4.84688 112.624 5.08722C113.184 5.30085 113.625 5.60796 113.946 6.00852C114.293 6.38239 114.546 6.83636 114.707 7.37046C114.867 7.87784 114.947 8.42529 114.947 9.01278V28.7207C114.947 29.3082 114.867 29.869 114.707 30.4031C114.546 30.9105 114.293 31.3645 113.946 31.7651C113.625 32.1389 113.184 32.446 112.624 32.6864C112.09 32.9 111.435 33.0068 110.661 33.0068H108.298C107.523 33.0068 106.856 32.9 106.295 32.6864C105.761 32.446 105.32 32.1389 104.973 31.7651C104.652 31.3645 104.412 30.9105 104.252 30.4031C104.092 29.869 104.011 29.3082 104.011 28.7207V9.01278C104.011 8.42529 104.092 7.87784 104.252 7.37046C104.412 6.83636 104.652 6.38239 104.973 6.00852C105.32 5.60796 105.761 5.30085 106.295 5.08722C106.856 4.84688 107.523 4.7267 108.298 4.7267H110.661ZM110.661 29.9225C111.088 29.9225 111.395 29.8023 111.582 29.5619C111.769 29.3216 111.863 29.0412 111.863 28.7207V9.01278C111.863 8.69233 111.769 8.41193 111.582 8.17159C111.395 7.93125 111.088 7.81108 110.661 7.81108H108.298C107.844 7.81108 107.523 7.93125 107.336 8.17159C107.176 8.41193 107.096 8.69233 107.096 9.01278V28.7207C107.096 29.0412 107.176 29.3216 107.336 29.5619C107.523 29.8023 107.844 29.9225 108.298 29.9225H110.661Z" fill="#2E3451"/>
<path d="M126.214 4.96705C126.988 4.96705 127.643 5.08722 128.177 5.32756C128.738 5.54119 129.178 5.8483 129.499 6.24886C129.846 6.62273 130.099 7.07671 130.26 7.6108C130.42 8.11818 130.5 8.66563 130.5 9.25313V11.2159C130.5 12.471 130.273 13.419 129.819 14.0599C129.392 14.6742 128.818 15.1014 128.097 15.3418C128.818 15.6088 129.392 16.0628 129.819 16.7037C130.273 17.3179 130.5 18.2526 130.5 19.5077V28.4804C130.5 29.2548 130.38 29.9225 130.139 30.4832C129.926 31.0173 129.619 31.458 129.218 31.8051C128.844 32.1256 128.39 32.3659 127.856 32.5261C127.349 32.6864 126.801 32.7665 126.214 32.7665H120.245V4.96705H126.214ZM127.416 19.1071C127.416 18.4128 127.215 17.8787 126.815 17.5048C126.441 17.1043 125.974 16.904 125.413 16.904H123.33V29.6821H126.214C126.561 29.6821 126.841 29.602 127.055 29.4418C127.295 29.2548 127.416 28.9344 127.416 28.4804V19.1071ZM127.416 9.25313C127.416 8.93267 127.322 8.65228 127.135 8.41193C126.975 8.17159 126.668 8.05142 126.214 8.05142H123.33V13.8196H125.413C125.974 13.8196 126.441 13.6327 126.815 13.2588C127.215 12.8582 127.416 12.3108 127.416 11.6165V9.25313Z" fill="#2E3451"/>
<path d="M4.76175 39.4851V49.9099H3.60511V40.6417H2.28324L1.93775 48.4678C1.91772 48.9485 1.81257 49.309 1.6223 49.5494C1.44205 49.7897 1.11158 49.9099 0.630895 49.9099H0V48.7532H0.480682C0.600852 48.7532 0.675959 48.7382 0.706002 48.7082C0.746058 48.6681 0.771094 48.588 0.781108 48.4678L1.17166 39.4851H4.76175Z" fill="#2E3451"/>
<path d="M11.9059 48.573C11.8358 48.9535 11.6706 49.274 11.4102 49.5343C11.1599 49.7847 10.7943 49.9099 10.3137 49.9099H9.5025V48.7532H10.3137C10.4438 48.7532 10.544 48.7232 10.6141 48.6631C10.6842 48.603 10.7292 48.5329 10.7493 48.4528L11.0948 46.5902H10.0583L8.43599 39.4851H9.62267L10.8845 45.4335H11.29L12.3716 39.4851H13.5432L11.9059 48.573Z" fill="#2E3451"/>
<path d="M21.0467 39.4851V49.9099H19.8751V46.6052H18.7034C18.4831 46.6052 18.2728 46.5751 18.0725 46.5151C17.8822 46.455 17.712 46.3648 17.5618 46.2447C17.4216 46.1145 17.3064 45.9493 17.2163 45.749C17.1362 45.5387 17.0961 45.2883 17.0961 44.9979V39.4851H18.2528V44.9979C18.2528 45.1681 18.2978 45.2883 18.388 45.3584C18.4781 45.4185 18.5832 45.4485 18.7034 45.4485H19.8751V39.4851H21.0467Z" fill="#2E3451"/>
<path d="M30.7553 48.7532V39.4851H31.912V49.9099H25.2575V39.4851H26.4142V48.7532H28.0064V39.4851H29.163V48.7532H30.7553Z" fill="#2E3451"/>
<path d="M38.9871 49.9099V43.2855L37.2747 45.0129V49.9099H36.118V39.4851H37.2747V43.6159L38.9871 41.8284V39.4851H40.1437V49.9099H38.9871Z" fill="#2E3451"/>
<path d="M47.4622 37.6224V38.3885H45.2691V37.6224H47.4622ZM47.2218 49.9099V43.2855L45.5094 45.0129V49.9099H44.3528V39.4851H45.5094V43.6159L47.2218 41.8284V39.4851H48.3785V49.9099H47.2218Z" fill="#2E3451"/>
<path d="M59.5544 39.4851C59.8449 39.4851 60.0902 39.5301 60.2905 39.6203C60.5008 39.7004 60.666 39.8156 60.7862 39.9658C60.9164 40.106 61.0115 40.2762 61.0716 40.4765C61.1317 40.6668 61.1617 40.8721 61.1617 41.0924V41.8284C61.1617 42.2991 61.0766 42.6546 60.9064 42.8949C60.7461 43.1252 60.5308 43.2855 60.2604 43.3756C60.5308 43.4757 60.7461 43.646 60.9064 43.8863C61.0766 44.1167 61.1617 44.4672 61.1617 44.9378V48.3026C61.1617 48.593 61.1167 48.8434 61.0265 49.0537C60.9464 49.2539 60.8313 49.4192 60.681 49.5494C60.5408 49.6695 60.3706 49.7597 60.1703 49.8197C59.98 49.8798 59.7748 49.9099 59.5544 49.9099H57.3163V39.4851H59.5544ZM60.0051 44.7876C60.0051 44.5272 59.93 44.327 59.7798 44.1868C59.6396 44.0365 59.4643 43.9614 59.254 43.9614H58.4729V48.7532H59.5544C59.6846 48.7532 59.7898 48.7232 59.8699 48.6631C59.96 48.593 60.0051 48.4728 60.0051 48.3026V44.7876ZM60.0051 41.0924C60.0051 40.9722 59.97 40.867 59.8999 40.7769C59.8398 40.6868 59.7247 40.6417 59.5544 40.6417H58.4729V42.8048H59.254C59.4643 42.8048 59.6396 42.7347 59.7798 42.5945C59.93 42.4443 60.0051 42.239 60.0051 41.9786V41.0924Z" fill="#2E3451"/>
<path d="M67.4815 42.7898C67.7719 42.7898 68.0172 42.8348 68.2175 42.925C68.4278 43.0051 68.593 43.1202 68.7132 43.2705C68.8434 43.4107 68.9385 43.5809 68.9986 43.7812C69.0587 43.9714 69.0888 44.1767 69.0888 44.3971V48.3026C69.0888 48.593 69.0437 48.8434 68.9536 49.0537C68.8734 49.2539 68.7583 49.4192 68.6081 49.5494C68.4679 49.6695 68.2976 49.7597 68.0974 49.8197C67.9071 49.8798 67.7018 49.9099 67.4815 49.9099H65.2283V39.4851H66.3849V42.7898H67.4815ZM67.9321 44.3971C67.9321 44.2669 67.8971 44.1617 67.827 44.0816C67.7669 43.9915 67.6517 43.9464 67.4815 43.9464H66.3849V48.7532H67.4815C67.6117 48.7532 67.7168 48.7232 67.7969 48.6631C67.887 48.593 67.9321 48.4728 67.9321 48.3026V44.3971ZM71.6274 39.4851V49.9099H70.4707V39.4851H71.6274Z" fill="#2E3451"/>
<path d="M78.1076 42.7898C78.398 42.7898 78.6434 42.8348 78.8437 42.925C79.054 43.0051 79.2192 43.1202 79.3394 43.2705C79.4696 43.4107 79.5647 43.5809 79.6248 43.7812C79.6849 43.9714 79.7149 44.1767 79.7149 44.3971V48.3026C79.7149 48.593 79.6699 48.8434 79.5797 49.0537C79.4996 49.2539 79.3845 49.4192 79.2342 49.5494C79.094 49.6695 78.9238 49.7597 78.7235 49.8197C78.5332 49.8798 78.3279 49.9099 78.1076 49.9099H75.8394V39.4851H79.4145V40.6417H76.9961V42.7898H78.1076ZM78.5583 44.3971C78.5583 44.2769 78.5232 44.1717 78.4531 44.0816C78.393 43.9915 78.2779 43.9464 78.1076 43.9464H76.9961V48.7532H78.1076C78.2378 48.7532 78.343 48.7232 78.4231 48.6631C78.5132 48.593 78.5583 48.4728 78.5583 48.3026V44.3971Z" fill="#2E3451"/>
<path d="M86.201 39.395C86.4914 39.395 86.7367 39.44 86.937 39.5301C87.1473 39.6103 87.3125 39.7254 87.4327 39.8756C87.5629 40.0158 87.658 40.1861 87.7181 40.3864C87.7782 40.5766 87.8082 40.7819 87.8082 41.0022V48.3927C87.8082 48.613 87.7782 48.8233 87.7181 49.0236C87.658 49.2139 87.5629 49.3841 87.4327 49.5343C87.3125 49.6745 87.1473 49.7897 86.937 49.8798C86.7367 49.9599 86.4914 50 86.201 50H85.3147C85.0243 50 84.7739 49.9599 84.5636 49.8798C84.3633 49.7897 84.1981 49.6745 84.0679 49.5343C83.9478 49.3841 83.8576 49.2139 83.7975 49.0236C83.7375 48.8233 83.7074 48.613 83.7074 48.3927V41.0022C83.7074 40.7819 83.7375 40.5766 83.7975 40.3864C83.8576 40.1861 83.9478 40.0158 84.0679 39.8756C84.1981 39.7254 84.3633 39.6103 84.5636 39.5301C84.7739 39.44 85.0243 39.395 85.3147 39.395H86.201ZM86.201 48.8434C86.3612 48.8434 86.4763 48.7983 86.5464 48.7082C86.6165 48.618 86.6516 48.5129 86.6516 48.3927V41.0022C86.6516 40.8821 86.6165 40.7769 86.5464 40.6868C86.4763 40.5967 86.3612 40.5516 86.201 40.5516H85.3147C85.1445 40.5516 85.0243 40.5967 84.9542 40.6868C84.8941 40.7769 84.8641 40.8821 84.8641 41.0022V48.3927C84.8641 48.5129 84.8941 48.618 84.9542 48.7082C85.0243 48.7983 85.1445 48.8434 85.3147 48.8434H86.201Z" fill="#2E3451"/>
<path d="M95.7436 44.9979C95.7436 45.2883 95.6985 45.5387 95.6084 45.749C95.5283 45.9493 95.4131 46.1145 95.2629 46.2447C95.1127 46.3648 94.9375 46.455 94.7372 46.5151C94.5469 46.5751 94.3416 46.6052 94.1213 46.6052H93.0548V49.9099H91.8981V39.4851H94.1213C94.4117 39.4851 94.6571 39.5301 94.8573 39.6203C95.0676 39.7004 95.2379 39.8156 95.3681 39.9658C95.4982 40.106 95.5934 40.2762 95.6535 40.4765C95.7135 40.6668 95.7436 40.8721 95.7436 41.0924V44.9979ZM94.5719 41.0924C94.5719 40.9722 94.5369 40.867 94.4668 40.7769C94.4067 40.6868 94.2915 40.6417 94.1213 40.6417H93.0548V45.4485H94.1213C94.2515 45.4485 94.3566 45.4185 94.4367 45.3584C94.5269 45.2883 94.5719 45.1681 94.5719 44.9979V41.0924Z" fill="#2E3451"/>
<path d="M106.718 39.4851C107.009 39.4851 107.254 39.5301 107.454 39.6203C107.665 39.7004 107.83 39.8156 107.95 39.9658C108.08 40.106 108.175 40.2762 108.236 40.4765C108.296 40.6668 108.326 40.8721 108.326 41.0924V41.8284C108.326 42.2991 108.241 42.6546 108.07 42.8949C107.91 43.1252 107.695 43.2855 107.424 43.3756C107.695 43.4757 107.91 43.646 108.07 43.8863C108.241 44.1167 108.326 44.4672 108.326 44.9378V48.3026C108.326 48.593 108.281 48.8434 108.191 49.0537C108.11 49.2539 107.995 49.4192 107.845 49.5494C107.705 49.6695 107.535 49.7597 107.334 49.8197C107.144 49.8798 106.939 49.9099 106.718 49.9099H104.48V39.4851H106.718ZM107.169 44.7876C107.169 44.5272 107.094 44.327 106.944 44.1868C106.804 44.0365 106.628 43.9614 106.418 43.9614H105.637V48.7532H106.718C106.849 48.7532 106.954 48.7232 107.034 48.6631C107.124 48.593 107.169 48.4728 107.169 48.3026V44.7876ZM107.169 41.0924C107.169 40.9722 107.134 40.867 107.064 40.7769C107.004 40.6868 106.889 40.6417 106.718 40.6417H105.637V42.8048H106.418C106.628 42.8048 106.804 42.7347 106.944 42.5945C107.094 42.4443 107.169 42.239 107.169 41.9786V41.0924Z" fill="#2E3451"/>
<path d="M119.99 49.9099V43.2855L118.278 45.0129V49.9099H117.121V39.4851H118.278V43.6159L119.99 41.8284V39.4851H121.147V49.9099H119.99Z" fill="#2E3451"/>
<path d="M128.3 42.8048V39.4851H129.457V49.9099H128.3V43.9614H126.512V49.9099H125.356V39.4851H126.512V42.8048H128.3Z" fill="#2E3451"/>
<path d="M133.074 39.4851H138.046V40.6417H136.138V49.9099H134.981V40.6417H133.074V39.4851Z" fill="#2E3451"/>
<path d="M141.767 39.4851H145.236V40.6417H142.923V42.7898H144.651V43.9614H142.923V48.7532H145.236V49.9099H141.767V39.4851Z" fill="#2E3451"/>
<path d="M153.025 44.9979C153.025 45.2883 152.98 45.5387 152.89 45.749C152.81 45.9493 152.695 46.1145 152.545 46.2447C152.394 46.3648 152.219 46.455 152.019 46.5151C151.829 46.5751 151.623 46.6052 151.403 46.6052H150.336V49.9099H149.18V39.4851H151.403C151.693 39.4851 151.939 39.5301 152.139 39.6203C152.349 39.7004 152.52 39.8156 152.65 39.9658C152.78 40.106 152.875 40.2762 152.935 40.4765C152.995 40.6668 153.025 40.8721 153.025 41.0924V44.9979ZM151.854 41.0924C151.854 40.9722 151.819 40.867 151.748 40.7769C151.688 40.6868 151.573 40.6417 151.403 40.6417H150.336V45.4485H151.403C151.533 45.4485 151.638 45.4185 151.718 45.3584C151.809 45.2883 151.854 45.1681 151.854 44.9979V41.0924Z" fill="#2E3451"/>
<path d="M159.977 42.8048V39.4851H161.134V49.9099H159.977V43.9614H158.19V49.9099H157.033V39.4851H158.19V42.8048H159.977Z" fill="#2E3451"/>
<path d="M165.341 39.4851H168.811V40.6417H166.498V42.7898H168.225V43.9614H166.498V48.7532H168.811V49.9099H165.341V39.4851Z" fill="#2E3451"/>
<path d="M172.267 39.4851H177.239V40.6417H175.331V49.9099H174.175V40.6417H172.267V39.4851Z" fill="#2E3451"/>
<path d="M180.96 39.4851H184.43V40.6417H182.116V42.7898H183.844V43.9614H182.116V48.7532H184.43V49.9099H180.96V39.4851Z" fill="#2E3451"/>
<path d="M147.349 4.7267C148.124 4.7267 148.778 4.84687 149.312 5.08722C149.873 5.30085 150.313 5.60795 150.634 6.00852C150.981 6.38239 151.235 6.83636 151.395 7.37046C151.555 7.87784 151.635 8.42528 151.635 9.01278V28.7207C151.635 29.3082 151.555 29.869 151.395 30.4031C151.235 30.9105 150.981 31.3645 150.634 31.7651C150.313 32.1389 149.873 32.446 149.312 32.6864C148.778 32.9 148.124 33.0068 147.349 33.0068H144.986C144.211 33.0068 143.544 32.9 142.983 32.6864C142.449 32.446 142.008 32.1389 141.661 31.7651C141.341 31.3645 141.1 30.9105 140.94 30.4031C140.78 29.869 140.7 29.3082 140.7 28.7207V9.01278C140.7 8.42528 140.78 7.87784 140.94 7.37046C141.1 6.83636 141.341 6.38239 141.661 6.00852C142.008 5.60795 142.449 5.30085 142.983 5.08722C143.544 4.84687 144.211 4.7267 144.986 4.7267H147.349ZM147.349 29.9225C147.777 29.9225 148.084 29.8023 148.271 29.5619C148.457 29.3216 148.551 29.0412 148.551 28.7207V9.01278C148.551 8.69233 148.457 8.41193 148.271 8.17159C148.084 7.93125 147.777 7.81108 147.349 7.81108H144.986C144.532 7.81108 144.211 7.93125 144.025 8.17159C143.864 8.41193 143.784 8.69233 143.784 9.01278V28.7207C143.784 29.0412 143.864 29.3216 144.025 29.5619C144.211 29.8023 144.532 29.9225 144.986 29.9225H147.349Z" fill="#FB8C00"/>
<path d="M167.509 4.96705V32.7665H164.424V8.05142H160.018V32.7665H156.934V4.96705H167.509Z" fill="#FB8C00"/>
<path d="M185.087 4.96705V8.05142H180V32.7665H176.916V8.05142H171.828V4.96705H185.087Z" fill="#FB8C00"/>
</svg>
