<svg width="111" height="38" viewBox="0 0 111 38" fill="none" xmlns="http://www.w3.org/2000/svg">
<path fill-rule="evenodd" clip-rule="evenodd" d="M28.5473 31.3278C24.2376 25.4447 31.8309 14.9782 40.1082 7.52178L35.1828 3.4173C35.1828 3.4173 28.5473 8.34267 25.6057 12.3787L27.0423 8.47949L22.9378 5.67476L18.8333 8.61631L20.8856 4.51183L14.1132 0.407349C14.1132 0.407349 10.2139 6.22203 0.5 7.04292L3.0995 12.926C3.0995 12.926 8.16169 11.421 11.5137 9.57402C11.5137 9.57402 6.79353 17.9882 2.89428 28.8651L8.29851 32.4223C10.1455 27.2233 14.3184 18.125 14.3184 18.125C15.4129 16.2096 18.0808 15.3887 18.0808 15.3887C18.0808 15.3887 13.2239 23.8029 11.8557 28.181L16.9863 30.0964C16.9863 30.0964 19.5858 22.8452 24.2376 18.7407C21.9801 28.2494 23.0062 38.3054 36.6878 37.5529L35.7301 32.3539C35.6617 32.2855 30.9415 34.5429 28.5473 31.3278Z" fill="#ED1C24"/>
<path fill-rule="evenodd" clip-rule="evenodd" d="M109.269 27.018C106.738 29.0703 104.138 29.7544 102.633 28.7282C100.239 27.0864 102.223 21.0665 105.369 15.4571L99.6915 15.3887C99.2127 16.0728 98.3918 17.0989 97.6393 18.5354C96.6816 18.9459 93.6716 20.1772 92.3719 20.1088C92.0983 23.666 85.8047 28.181 83.6157 25.4446C81.2898 22.7083 85.189 16.8937 91.6878 17.0989C92.3719 17.1673 92.7139 16.278 91.9614 16.0043C84.2997 14.3626 76.6381 19.9036 76.9801 25.5131C75.8172 27.1548 74.3806 28.5914 73.2177 27.8389C71.5759 26.8128 73.6965 20.6561 78.2798 16.8252L73.7649 14.5678C73.7649 14.5678 69.4552 17.5777 67.5398 19.9036C67.0609 19.4247 67.6082 17.783 68.8395 15.6623L64.4614 14.4994C64.4614 14.4994 63.0249 16.2096 62.3408 17.3725C62.0672 16.6884 62.6828 14.9782 62.6828 14.9782L58.0995 13.8153C55.3632 17.3725 51.7375 20.3825 49.8905 19.63C49.2749 23.1872 42.9813 27.6337 41.0659 24.5553C39.2873 21.6138 44.8968 16.8252 50.1642 17.4409C50.8482 17.5777 51.2587 16.8252 50.5746 16.4832C42.0236 13.9521 31.8308 19.972 35.5933 27.5653C37.6455 31.6698 46.4017 33.1063 51.2587 22.9136C52.2848 22.2295 53.0373 21.6822 54.8159 20.9981C53.5846 22.8451 51.8744 28.5914 51.8744 28.5914L55.9788 29.4807C55.9788 29.4807 56.7997 25.5815 58.5783 23.8713C60.2885 22.0927 61.1778 22.2295 61.1778 22.2295C58.9888 25.5815 58.0995 29.6175 58.0995 29.6175L62.888 30.2332C63.2985 27.2917 65.0087 24.6922 68.3607 23.3924C67.0609 26.8128 67.4714 30.4384 70.2761 31.7382C72.3968 32.6275 75.2699 31.8066 77.801 28.181C77.8694 28.2494 77.9378 28.3862 77.9378 28.4546C80.4005 32.3539 90.2512 34.6113 93.6716 22.8451C94.0137 22.8451 95.6555 22.3663 96.2711 22.1611C95.9291 23.666 95.7923 25.3078 95.9975 27.0864C96.6816 32.6275 104.822 33.8588 110.5 29.5491L109.269 27.018Z" fill="#ED1C24"/>
<path fill-rule="evenodd" clip-rule="evenodd" d="M104.48 14.0206C106.738 14.0206 108.585 12.1051 108.585 9.71087C108.585 7.31659 106.738 5.40116 104.48 5.40116C102.154 5.40116 100.307 7.31659 100.307 9.71087C100.376 12.1051 102.154 14.0206 104.48 14.0206Z" fill="#ED1C24"/>
</svg>
