<svg width="121" height="18" viewBox="0 0 121 18" fill="none" xmlns="http://www.w3.org/2000/svg">
<path d="M52.5268 17.2887C50.2323 17.2887 48.282 16.4283 47.0201 14.8222C46.6759 14.3633 46.3891 13.9044 46.1597 13.3882C46.6186 10.348 48.3968 7.76673 51.2648 6.16061C51.609 5.93117 52.0105 5.75909 52.3547 5.64436C51.2648 6.96368 50.7486 8.97133 50.7486 10.5774C50.7486 12.1836 51.3222 13.1587 52.4694 13.5029L52.5841 13.5602C52.9283 13.6176 53.2725 13.675 53.674 13.675C55.2801 13.675 56.9436 12.9866 58.6644 11.6099C60.3853 10.2333 61.5899 8.56979 62.2209 6.67686L63.0239 3.00574H66.695L65.7773 7.30784L70.5383 3.00574H74.7256L69.5058 7.42257L72.2591 13.7897L78.4541 3.00574H82.2973L84.0182 14.9369H80.347L80.2323 13.3308H75.9302L75.1272 14.9369H68.3012L66.3509 9.8891L64.9742 11.0937L64.1711 14.9369H60.5L60.9015 13.1587L60.5 13.6176C60.0985 14.0765 59.697 14.478 59.2381 14.8222C57.1157 16.4283 54.7639 17.2887 52.5268 17.2887ZM77.0201 11.0937H80.0029L79.544 5.87381L77.0201 11.0937ZM110.634 14.9369L112.584 5.87381H108.97L109.601 3.00574H120.5L119.869 5.87381H116.255L114.305 14.9369H110.634ZM105.012 14.9369L104.898 13.3308H100.596L99.7926 14.9369H96.2362L103.062 3.00574H106.905L108.626 14.9369H105.012ZM101.743 11.0937H104.726L104.267 5.87381L101.743 11.0937ZM92.1635 14.9369L93.196 10.1759H89.0086L87.9761 14.9369H84.305L86.8862 3.00574H90.5574L89.6396 7.13576H93.827L94.6874 3.00574H98.3585L95.7773 14.9369H92.1635Z" fill="#184B68"/>
<path d="M8.30114 14.9369L10.2514 5.9885H6.06405L4.17112 14.9369H0.5L3.0239 2.94833H14.5535L12.0296 14.9369H8.30114Z" fill="#086FA9"/>
<path d="M13.9225 14.9369L16.5037 2.94833H26.1405L25.6242 5.47225H19.6013L19.1997 7.59461H24.2475L23.7313 10.1185H18.6261L18.1672 12.413H24.3623L23.846 14.9369H13.9225Z" fill="#086FA9"/>
<path d="M28.2056 14.9369L30.1559 5.87377H26.4847L27.1157 2.94833H38.0717L37.4408 5.87377H33.827L31.8767 14.9369H28.2056Z" fill="#086FA9"/>
<path d="M36.4656 14.9369L39.0468 3.00573H44.8403C46.4465 3.00573 47.5937 3.3499 48.3394 3.98088L48.4541 4.09559L48.5688 3.98088C48.8556 3.69407 49.1998 3.3499 49.544 3.12046C51.4943 1.5717 53.7887 0.711273 56.0832 0.711273C58.1482 0.711273 59.9837 1.45697 61.2457 2.77629C61.4751 5.98852 60.1558 8.97132 57.5172 11.1511C57.1157 11.4952 56.7141 11.782 56.3126 12.0115C57.173 10.8642 57.6893 9.20077 57.6893 7.47993C57.6893 6.04589 57.173 5.01339 56.1979 4.61186H56.1405C55.9684 4.5545 55.8537 4.49713 55.739 4.49713C55.3375 4.3824 54.8786 4.3824 54.477 4.3824C53.1577 4.3824 51.7237 4.78393 50.2897 5.64435C49.9455 5.81644 49.6013 6.04589 49.2572 6.27533C47.3069 7.65201 46.4465 9.31549 45.8155 10.8642L45.586 10.9216C44.8403 11.1511 43.9226 11.2658 43.1769 11.2658H40.9971L40.1941 15.109H36.4656V14.9369ZM41.5134 8.56979H43.4063C45.0698 8.56979 45.5287 7.30783 45.5287 6.67685C45.5287 5.93115 44.783 5.47228 43.4637 5.47228H42.2017L41.5134 8.56979Z" fill="#086FA9"/>
</svg>
