<svg width="141" height="20" viewBox="0 0 141 20" fill="none" xmlns="http://www.w3.org/2000/svg">
<path d="M61.198 19.6702C58.5211 19.6702 56.2458 18.6664 54.7735 16.7926C54.3719 16.2572 54.0373 15.7218 53.7697 15.1195C54.305 11.5727 56.3796 8.56121 59.7257 6.6874C60.1272 6.41972 60.5957 6.21896 60.9972 6.08511C59.7257 7.62431 59.1234 9.96657 59.1234 11.8404C59.1234 13.7142 59.7926 14.8519 61.131 15.2534L61.2649 15.3203C61.6664 15.3872 62.0679 15.4541 62.5364 15.4541C64.4102 15.4541 66.3509 14.6511 68.3586 13.045C70.3662 11.4388 71.7716 9.49811 72.5077 7.28969L73.4446 3.00671H77.7276L76.6568 8.02583L82.2113 3.00671H87.0966L81.0068 8.15969L84.219 15.588L91.4465 3.00671H95.9303L97.9379 16.9264H93.6549L93.5211 15.0526H88.502L87.5651 16.9264H79.6014L77.3261 11.0373L75.7199 12.4427L74.783 16.9264H70.5001L70.9685 14.8518L70.5001 15.3872C70.0316 15.9226 69.5632 16.391 69.0278 16.7926C66.5517 18.6664 63.8079 19.6702 61.198 19.6702ZM89.7735 12.4427H93.2534L92.718 6.35279L89.7735 12.4427ZM128.99 16.9264L131.265 6.35279H127.049L127.785 3.00671H140.5L139.764 6.35279H135.548L133.273 16.9264H128.99ZM122.431 16.9264L122.297 15.0526H117.278L116.341 16.9264H112.192L120.156 3.00671H124.64L126.647 16.9264H122.431ZM118.617 12.4427H122.097L121.561 6.35279L118.617 12.4427ZM107.441 16.9264L108.645 11.3719H103.76L102.556 16.9264H98.2725L101.284 3.00671H105.567L104.496 7.82508H109.382L110.385 3.00671H114.668L111.657 16.9264H107.441Z" fill="#E1E1E1"/>
<path d="M9.60133 16.9263L11.8767 6.48655H6.99139L4.78298 16.9263H0.5L3.44455 2.9397H16.8958L13.9512 16.9263H9.60133Z" fill="#E1E1E1"/>
<path d="M16.1595 16.9263L19.171 2.9397H30.4139L29.8116 5.88426H22.7848L22.3163 8.36035H28.2054L27.6031 11.3049H21.6471L21.1117 13.9818H28.3393L27.737 16.9263H16.1595Z" fill="#E1E1E1"/>
<path d="M32.8232 16.9263L35.0985 6.3527H30.8156L31.5517 2.9397H44.3337L43.5976 6.3527H39.3815L37.1062 16.9263H32.8232Z" fill="#E1E1E1"/>
<path d="M42.4598 16.9264L45.4713 3.0067H52.2304C54.1042 3.0067 55.4426 3.40824 56.3126 4.14437L56.4465 4.2782L56.5803 4.14437C56.9149 3.80977 57.3164 3.40824 57.718 3.14055C59.9933 1.33367 62.6702 0.329834 65.347 0.329834C67.7562 0.329834 69.8977 1.19982 71.37 2.73902C71.6377 6.48663 70.0985 9.96655 67.0201 12.5096C66.5516 12.9111 66.0832 13.2457 65.6147 13.5134C66.6185 12.175 67.2208 10.2342 67.2208 8.2266C67.2208 6.55356 66.6185 5.34897 65.4809 4.88052H65.4139C65.2132 4.81359 65.0793 4.74666 64.9455 4.74666C64.477 4.61282 63.9417 4.61281 63.4732 4.61281C61.934 4.61281 60.261 5.08127 58.5879 6.0851C58.1864 6.28586 57.7849 6.55355 57.3834 6.82124C55.108 8.42736 54.1042 10.3681 53.3681 12.175L53.1004 12.2419C52.2304 12.5096 51.1596 12.6434 50.2897 12.6434H47.7466L46.8097 17.1272H42.4598V16.9264ZM48.3489 9.4981H50.5574C52.4981 9.4981 53.0334 8.02581 53.0334 7.28968C53.0334 6.4197 52.1635 5.88434 50.6243 5.88434H49.152L48.3489 9.4981Z" fill="#E1E1E1"/>
</svg>
