<svg width="141" height="32" viewBox="0 0 141 32" fill="none" xmlns="http://www.w3.org/2000/svg">
<g clip-path="url(#clip0)">
<path fill-rule="evenodd" clip-rule="evenodd" d="M8.90781 27.1669L8.9276 27.165L6.632 26.7595H0.5V28.8747H18.5464L8.90781 27.1669V27.1669Z" fill="#E1E1E1"/>
<path fill-rule="evenodd" clip-rule="evenodd" d="M6.632 29.5862H0.5V31.6548H18.3541L6.632 29.5862Z" fill="#E1E1E1"/>
<path fill-rule="evenodd" clip-rule="evenodd" d="M34.0353 31.6198L22.5512 29.5846L10.7 29.5862L22.4346 31.6549H34.0356L34.0353 31.6198L34.0353 31.6198Z" fill="#E1E1E1"/>
<path fill-rule="evenodd" clip-rule="evenodd" d="M34.4835 25.9886L22.9588 23.9557L11.3828 23.9573V23.9557H11.125L34.4874 28.0949L34.4835 25.9886Z" fill="#E1E1E1"/>
<path fill-rule="evenodd" clip-rule="evenodd" d="M6.60752 23.9557H0.5V26.0726H18.6137L6.60752 23.9557Z" fill="#E1E1E1"/>
<path fill-rule="evenodd" clip-rule="evenodd" d="M11.0309 26.7595L25.6284 29.3349L34.4873 30.8982L34.484 28.7933L22.9485 26.7581L11.0309 26.7594V26.7595Z" fill="#E1E1E1"/>
<path fill-rule="evenodd" clip-rule="evenodd" d="M34.48 23.9574H26.9209L34.4833 25.2918L34.48 23.9574Z" fill="#E1E1E1"/>
<path fill-rule="evenodd" clip-rule="evenodd" d="M31.0505 22.2822H22.6406C22.7682 22.0482 22.8945 21.8136 23.0182 21.5728L23.2581 21.0834L23.9232 19.5862C24.0593 19.2484 24.1954 18.9088 24.318 18.5681C24.3825 18.3962 24.442 18.2221 24.5007 18.0485L24.5273 17.9718C24.5781 17.823 24.6293 17.6744 24.6747 17.5263L24.9902 16.4757C25.0237 16.3585 25.054 16.2395 25.0841 16.1212L25.1299 15.9434C25.178 15.7639 25.222 15.583 25.2627 15.4024L25.3072 15.2084C25.3341 15.0937 25.361 14.9789 25.3849 14.8618L25.4906 14.3248C25.5153 14.2047 25.5351 14.0828 25.5548 13.9615L25.5893 13.7558C25.6191 13.5785 25.649 13.4007 25.6715 13.2241L25.8037 12.1241C25.824 11.9368 25.8383 11.7495 25.8494 11.5622L25.8958 10.6613C25.9048 10.4015 25.8941 5.20701 25.8941 5.20701C29.6038 7.85967 32.0221 12.1856 32.0221 17.0757C32.0221 18.9114 31.6723 20.6636 31.0505 22.2822H31.0505ZM22.0281 21.1696C21.9181 21.502 21.8053 21.835 21.6824 22.168C21.6688 22.2064 21.6539 22.2443 21.6393 22.2822H8.47066C8.57703 22.0097 8.68653 21.7388 8.80793 21.4741C9.33446 20.3046 10.0228 19.1828 10.8491 18.1339C10.9168 18.3318 10.9922 18.5306 11.09 18.7241C11.2162 18.9835 11.365 19.2367 11.5349 19.476C11.7061 19.7139 11.8908 19.9429 12.0961 20.1467C12.2972 20.3539 12.5137 20.5401 12.7364 20.7012C12.9568 20.8657 13.186 21.0021 13.4097 21.1167C13.6333 21.2316 13.8549 21.319 14.0621 21.387C14.1652 21.4219 14.2676 21.4462 14.3627 21.4723C14.4593 21.4947 14.5518 21.5121 14.638 21.5285C14.8123 21.5555 14.9642 21.5699 15.0897 21.5733C15.214 21.5831 15.3132 21.573 15.3795 21.5716C15.4458 21.5678 15.4811 21.5657 15.4811 21.5657C15.4811 21.5657 15.4477 21.5536 15.3852 21.5309C15.3226 21.5095 15.2315 21.4786 15.1185 21.4338C15.0047 21.393 14.8709 21.3312 14.7199 21.2641C14.5701 21.1923 14.4043 21.1094 14.2309 21.0077C14.1449 20.9552 14.0538 20.9056 13.9652 20.8438C13.8744 20.7866 13.7831 20.7236 13.6915 20.6565C13.5075 20.5231 13.3207 20.3747 13.139 20.2088C13.0468 20.1277 12.9583 20.0393 12.8674 19.952C12.7815 19.8594 12.69 19.7706 12.6062 19.6729C12.4347 19.4817 12.2717 19.2776 12.1226 19.0638C11.9683 18.8536 11.8341 18.6298 11.7084 18.4061C11.5822 18.1823 11.4763 17.9524 11.3794 17.7269C11.3558 17.6703 11.3414 17.6164 11.3199 17.5602C12.0501 16.698 12.8822 15.8687 13.8135 15.0925C14.8315 14.2349 15.9822 13.4162 17.2349 12.6574C17.8172 12.2994 23.276 9.53618 23.4946 9.48091L23.5605 9.97983C23.594 10.3157 23.6241 10.6523 23.6424 10.98L23.6493 11.4967C23.6528 11.6631 23.6528 11.8309 23.6471 12.0027L23.6157 13.0314C23.6103 13.1879 23.5984 13.3436 23.5837 13.5357L23.5697 13.7236C23.5621 13.8312 23.5544 13.9388 23.5424 14.0477L23.5199 14.2677C23.4927 14.5364 23.4658 14.8058 23.4288 15.0799C23.4093 15.2488 23.3866 15.4171 23.36 15.586L23.331 15.7781C23.3155 15.8845 23.2999 15.9915 23.281 16.0979L23.0944 17.126C23.0702 17.2599 23.0415 17.3925 23.0131 17.5251L22.9898 17.6332C22.9539 17.8016 22.9177 17.9698 22.8752 18.1423C22.7978 18.4812 22.7134 18.8196 22.6265 19.1544L22.028 21.1695L22.0281 21.1696ZM5.45852 22.2822H3.59584C2.97405 20.6636 2.62416 18.9114 2.62416 17.0757C2.62416 9.00468 9.20505 2.46188 17.3231 2.46188C20.3026 2.46188 23.0732 3.34591 25.3891 4.8607L25.1678 6.29922L24.1486 6.64215C23.4408 6.8801 22.7303 7.12682 22.0251 7.3926C21.3047 7.66203 20.5945 7.94447 19.9148 8.23104C19.2748 8.50038 18.5947 8.81259 17.8354 9.18543C17.121 9.53804 16.4373 9.90141 15.8027 10.2659C14.3973 11.0823 13.1084 11.9665 11.971 12.8947C10.7072 13.9347 9.58997 15.0598 8.64883 16.2389C7.64105 17.5138 6.80996 18.8845 6.17813 20.3139C5.89986 20.9506 5.66298 21.6127 5.45852 22.2822ZM34.1529 0.345215H0.5V22.7137H34.1463L34.1529 0.345215Z" fill="#E1E1E1"/>
<path fill-rule="evenodd" clip-rule="evenodd" d="M19.2326 14.5002C18.5471 13.9551 17.5479 14.0668 17.0007 14.7499C16.4537 15.4327 16.5657 16.4284 17.2512 16.9736C17.9367 17.5189 18.9359 17.4071 19.483 16.7241C20.0302 16.041 19.918 15.0455 19.2326 14.5002Z" fill="#E1E1E1"/>
</g>
<path d="M48.1453 7.3865V9.5907H44.4982V27.2529H42.287V9.5907H38.6399V7.3865H48.1453Z" fill="#E1E1E1"/>
<path d="M56.3788 7.3865C56.934 7.3865 57.403 7.47238 57.7859 7.64413C58.1879 7.79681 58.5038 8.01627 58.7336 8.30253C58.9825 8.56971 59.1643 8.89414 59.2792 9.27582C59.3941 9.63841 59.4515 10.0296 59.4515 10.4495V11.8522C59.4515 12.7491 59.2888 13.4266 58.9633 13.8846C58.657 14.3235 58.2454 14.6289 57.7285 14.8006C58.2454 14.9915 58.657 15.3159 58.9633 15.7739C59.2888 16.2128 59.4515 16.8808 59.4515 17.7777V24.1899C59.4515 24.7434 59.3653 25.2205 59.193 25.6212C59.0399 26.0029 58.8197 26.3178 58.5325 26.5659C58.2645 26.7949 57.9391 26.9667 57.5562 27.0812C57.1924 27.1957 56.7999 27.2529 56.3788 27.2529H52.0999V7.3865H56.3788ZM57.2403 17.4915C57.2403 16.9953 57.0967 16.6136 56.8095 16.3464C56.5415 16.0602 56.2065 15.917 55.8044 15.917H54.3111V25.0487H56.3788C56.6276 25.0487 56.8287 24.9915 56.9818 24.877C57.1541 24.7434 57.2403 24.5144 57.2403 24.1899V17.4915ZM57.2403 10.4495C57.2403 10.2205 57.1733 10.0201 57.0393 9.84833C56.9244 9.67658 56.7042 9.5907 56.3788 9.5907H54.3111V13.7128H55.8044C56.2065 13.7128 56.5415 13.5793 56.8095 13.3121C57.0967 13.0258 57.2403 12.6346 57.2403 12.1384V10.4495Z" fill="#E1E1E1"/>
<path d="M68.5535 7.21475C69.1087 7.21475 69.5777 7.30062 69.9606 7.47238C70.3627 7.62505 70.6785 7.84452 70.9083 8.13078C71.1572 8.39795 71.339 8.72238 71.4539 9.10406C71.5688 9.46666 71.6262 9.85788 71.6262 10.2777V24.3617C71.6262 24.7815 71.5688 25.1823 71.4539 25.564C71.339 25.9266 71.1572 26.251 70.9083 26.5373C70.6785 26.8044 70.3627 27.0239 69.9606 27.1957C69.5777 27.3483 69.1087 27.4247 68.5535 27.4247H66.8592C66.304 27.4247 65.8253 27.3483 65.4233 27.1957C65.0404 27.0239 64.7245 26.8044 64.4756 26.5373C64.2459 26.251 64.0736 25.9266 63.9587 25.564C63.8439 25.1823 63.7864 24.7815 63.7864 24.3617V10.2777C63.7864 9.85788 63.8439 9.46666 63.9587 9.10406C64.0736 8.72238 64.2459 8.39795 64.4756 8.13078C64.7245 7.84452 65.0404 7.62505 65.4233 7.47238C65.8253 7.30062 66.304 7.21475 66.8592 7.21475H68.5535ZM68.5535 25.2205C68.8598 25.2205 69.08 25.1346 69.214 24.9628C69.348 24.7911 69.415 24.5907 69.415 24.3617V10.2777C69.415 10.0487 69.348 9.84833 69.214 9.67658C69.08 9.50482 68.8598 9.41895 68.5535 9.41895H66.8592C66.5337 9.41895 66.304 9.50482 66.17 9.67658C66.0551 9.84833 65.9977 10.0487 65.9977 10.2777V24.3617C65.9977 24.5907 66.0551 24.7911 66.17 24.9628C66.304 25.1346 66.5337 25.2205 66.8592 25.2205H68.5535Z" fill="#E1E1E1"/>
<path d="M82.2307 4.73145V6.19137H78.038V4.73145H82.2307ZM81.7712 27.2529V14.6289L78.4974 17.9209V27.2529H76.2862V7.3865H78.4974V15.2586L81.7712 11.8522V7.3865H83.9824V27.2529H81.7712Z" fill="#E1E1E1"/>
<path d="M101.385 24.7052C101.251 25.4304 100.935 26.0411 100.438 26.5373C99.9589 27.0144 99.2601 27.2529 98.3412 27.2529H96.7905V25.0487H98.3412C98.5901 25.0487 98.7815 24.9915 98.9155 24.877C99.0495 24.7625 99.1357 24.6289 99.174 24.4762L99.8345 20.9266H97.853L94.7516 7.3865H97.0202L99.4324 18.7224H100.208L102.275 7.3865H104.515L101.385 24.7052Z" fill="#E1E1E1"/>
<path d="M116.054 7.3865V27.2529H113.843V9.5907H111.316L110.655 24.5048C110.617 25.4209 110.416 26.1079 110.052 26.5659C109.708 27.0239 109.076 27.2529 108.157 27.2529H106.951V25.0487H107.87C108.099 25.0487 108.243 25.0201 108.3 24.9628C108.377 24.8865 108.425 24.7338 108.444 24.5048L109.191 7.3865H116.054Z" fill="#E1E1E1"/>
<path d="M125.416 7.21475C125.971 7.21475 126.44 7.30062 126.823 7.47238C127.225 7.62505 127.541 7.84452 127.77 8.13078C128.019 8.39795 128.201 8.72238 128.316 9.10406C128.431 9.46666 128.488 9.85788 128.488 10.2777V24.3617C128.488 24.7815 128.431 25.1823 128.316 25.564C128.201 25.9266 128.019 26.251 127.77 26.5373C127.541 26.8044 127.225 27.0239 126.823 27.1957C126.44 27.3483 125.971 27.4247 125.416 27.4247H123.721C123.166 27.4247 122.687 27.3483 122.285 27.1957C121.903 27.0239 121.587 26.8044 121.338 26.5373C121.108 26.251 120.936 25.9266 120.821 25.564C120.706 25.1823 120.649 24.7815 120.649 24.3617V10.2777C120.649 9.85788 120.706 9.46666 120.821 9.10406C120.936 8.72238 121.108 8.39795 121.338 8.13078C121.587 7.84452 121.903 7.62505 122.285 7.47238C122.687 7.30062 123.166 7.21475 123.721 7.21475H125.416ZM125.416 25.2205C125.722 25.2205 125.942 25.1346 126.076 24.9628C126.21 24.7911 126.277 24.5907 126.277 24.3617V10.2777C126.277 10.0487 126.21 9.84833 126.076 9.67658C125.942 9.50482 125.722 9.41895 125.416 9.41895H123.721C123.396 9.41895 123.166 9.50482 123.032 9.67658C122.917 9.84833 122.86 10.0487 122.86 10.2777V24.3617C122.86 24.5907 122.917 24.7911 123.032 24.9628C123.166 25.1346 123.396 25.2205 123.721 25.2205H125.416Z" fill="#E1E1E1"/>
<path d="M137.427 7.3865C137.982 7.3865 138.451 7.47238 138.834 7.64413C139.236 7.79681 139.552 8.01627 139.782 8.30253C140.031 8.56971 140.213 8.89414 140.328 9.27582C140.442 9.63841 140.5 10.0296 140.5 10.4495V11.8522C140.5 12.7491 140.337 13.4266 140.012 13.8846C139.705 14.3235 139.294 14.6289 138.777 14.8006C139.294 14.9915 139.705 15.3159 140.012 15.7739C140.337 16.2128 140.5 16.8808 140.5 17.7777V24.1899C140.5 24.7434 140.414 25.2205 140.241 25.6212C140.088 26.0029 139.868 26.3178 139.581 26.5659C139.313 26.7949 138.987 26.9667 138.605 27.0812C138.241 27.1957 137.848 27.2529 137.427 27.2529H133.148V7.3865H137.427ZM138.289 17.4915C138.289 16.9953 138.145 16.6136 137.858 16.3464C137.59 16.0602 137.255 15.917 136.853 15.917H135.36V25.0487H137.427C137.676 25.0487 137.877 24.9915 138.03 24.877C138.203 24.7434 138.289 24.5144 138.289 24.1899V17.4915ZM138.289 10.4495C138.289 10.2205 138.222 10.0201 138.088 9.84833C137.973 9.67658 137.753 9.5907 137.427 9.5907H135.36V13.7128H136.853C137.255 13.7128 137.59 13.5793 137.858 13.3121C138.145 13.0258 138.289 12.6346 138.289 12.1384V10.4495Z" fill="#E1E1E1"/>
<defs>
<clipPath id="clip0">
<path d="M0.5 16C0.5 7.35412 7.5089 0.345215 16.1548 0.345215H34.1529V14.8284C34.1529 24.1214 26.6194 31.6549 17.3264 31.6549H16.1548C7.50891 31.6549 0.5 24.646 0.5 16Z" fill="white"/>
</clipPath>
</defs>
</svg>
