<svg width="120" height="24" viewBox="0 0 120 24" fill="none" xmlns="http://www.w3.org/2000/svg">
<g clip-path="url(#clip0)">
<path fill-rule="evenodd" clip-rule="evenodd" d="M6.40595 20.5081L6.42103 20.5066L4.672 20.1977H0V21.8093H13.7497L6.40595 20.5081V20.5081Z" fill="#292F4B"/>
<path fill-rule="evenodd" clip-rule="evenodd" d="M4.672 22.3513H0V23.9274H13.6031L4.672 22.3513Z" fill="#292F4B"/>
<path fill-rule="evenodd" clip-rule="evenodd" d="M25.5507 23.9008L16.801 22.3502L7.77142 22.3514L16.7121 23.9275H25.551L25.5508 23.9008L25.5507 23.9008Z" fill="#292F4B"/>
<path fill-rule="evenodd" clip-rule="evenodd" d="M25.8922 19.6103L17.1114 18.0615L8.29163 18.0627V18.0615H8.09521L25.8951 21.2151L25.8922 19.6103Z" fill="#292F4B"/>
<path fill-rule="evenodd" clip-rule="evenodd" d="M4.65335 18.0615H0V19.6744H13.8009L4.65335 18.0615Z" fill="#292F4B"/>
<path fill-rule="evenodd" clip-rule="evenodd" d="M8.02356 20.1977L19.1455 22.1599L25.8952 23.351L25.8926 21.7472L17.1036 20.1966L8.02356 20.1976V20.1977Z" fill="#292F4B"/>
<path fill-rule="evenodd" clip-rule="evenodd" d="M25.8896 18.0627H20.1302L25.8921 19.0794L25.8896 18.0627Z" fill="#292F4B"/>
<path fill-rule="evenodd" clip-rule="evenodd" d="M23.2766 16.7864H16.869C16.9663 16.6081 17.0625 16.4294 17.1568 16.2459L17.3395 15.873L17.8463 14.7323C17.9499 14.4749 18.0536 14.2162 18.1471 13.9566C18.1962 13.8257 18.2416 13.693 18.2863 13.5607L18.3065 13.5023C18.3452 13.3889 18.3842 13.2757 18.4188 13.1629L18.6592 12.3624C18.6848 12.2731 18.7078 12.1824 18.7308 12.0923L18.7656 11.9568C18.8023 11.8201 18.8358 11.6823 18.8668 11.5446L18.9007 11.3969C18.9212 11.3095 18.9417 11.222 18.96 11.1328L19.0404 10.7236C19.0593 10.6321 19.0743 10.5392 19.0894 10.4468L19.1156 10.2901C19.1384 10.155 19.1612 10.0196 19.1783 9.88503L19.279 9.04691C19.2945 8.90418 19.3054 8.76149 19.3138 8.61876L19.3492 7.93235C19.356 7.73445 19.3479 3.77674 19.3479 3.77674C22.1744 5.79781 24.0169 9.09374 24.0169 12.8195C24.0169 14.2182 23.7504 15.5532 23.2766 16.7864H23.2766ZM16.4024 15.9387C16.3185 16.192 16.2326 16.4457 16.139 16.6994C16.1286 16.7286 16.1172 16.7575 16.1061 16.7864H6.07289C6.15393 16.5788 6.23736 16.3724 6.32985 16.1707C6.73102 15.2797 7.25544 14.425 7.88504 13.6258C7.93661 13.7766 7.99405 13.928 8.06858 14.0755C8.16469 14.2731 8.27814 14.466 8.40752 14.6483C8.53797 14.8296 8.67871 15.0041 8.83515 15.1593C8.98838 15.3172 9.15328 15.4591 9.32297 15.5819C9.4909 15.7071 9.66552 15.8111 9.83593 15.8984C10.0063 15.9859 10.1752 16.0525 10.333 16.1043C10.4116 16.1309 10.4896 16.1495 10.5621 16.1694C10.6357 16.1864 10.7062 16.1997 10.7718 16.2121C10.9046 16.2327 11.0203 16.2437 11.116 16.2463C11.2106 16.2538 11.2863 16.246 11.3368 16.245C11.3873 16.2421 11.4142 16.2405 11.4142 16.2405C11.4142 16.2405 11.3887 16.2313 11.3411 16.214C11.2934 16.1977 11.224 16.1742 11.1379 16.14C11.0512 16.1089 10.9493 16.0618 10.8342 16.0107C10.7201 15.956 10.5937 15.8928 10.4617 15.8153C10.3961 15.7753 10.3267 15.7376 10.2592 15.6905C10.19 15.6469 10.1205 15.5989 10.0507 15.5478C9.91048 15.4462 9.76813 15.3331 9.6297 15.2067C9.55947 15.1449 9.49202 15.0775 9.42276 15.0111C9.35731 14.9405 9.28763 14.8728 9.2238 14.7984C9.09312 14.6527 8.96889 14.4972 8.85532 14.3343C8.73774 14.1742 8.63548 14.0036 8.53974 13.8332C8.44357 13.6627 8.36292 13.4875 8.2891 13.3157C8.2711 13.2725 8.26013 13.2315 8.24373 13.1887C8.8001 12.5317 9.43406 11.9 10.1436 11.3085C10.9192 10.6551 11.796 10.0314 12.7504 9.45321C13.194 9.1805 17.3531 7.07515 17.5197 7.03304L17.5699 7.41317C17.5955 7.66907 17.6184 7.92556 17.6323 8.17519L17.6375 8.56891C17.6403 8.6957 17.6403 8.82349 17.6359 8.95443L17.612 9.73821C17.6079 9.85738 17.5988 9.97603 17.5876 10.1224L17.5769 10.2656C17.5712 10.3476 17.5652 10.4295 17.5561 10.5125L17.539 10.6801C17.5183 10.8849 17.4978 11.0901 17.4696 11.299C17.4547 11.4276 17.4374 11.5559 17.4171 11.6845L17.3951 11.8309C17.3832 11.912 17.3714 11.9935 17.357 12.0746L17.2148 12.8579C17.1964 12.9599 17.1745 13.0609 17.1528 13.1619L17.1351 13.2443C17.1077 13.3726 17.0802 13.5008 17.0478 13.6322C16.9888 13.8904 16.9245 14.1482 16.8583 14.4033L16.4023 15.9386L16.4024 15.9387ZM3.77792 16.7864H2.35874C1.88499 15.5532 1.61841 14.2182 1.61841 12.8195C1.61841 6.6702 6.63242 1.68521 12.8176 1.68521C15.0877 1.68521 17.1986 2.35875 18.9632 3.51288L18.7945 4.6089L18.018 4.87018C17.4787 5.05147 16.9374 5.23945 16.4001 5.44195C15.8512 5.64723 15.3101 5.86242 14.7922 6.08076C14.3046 6.28597 13.7865 6.52385 13.2079 6.80792C12.6636 7.07657 12.1427 7.35343 11.6592 7.63116C10.5884 8.25315 9.60637 8.92684 8.73981 9.63404C7.77692 10.4264 6.9257 11.2836 6.20864 12.182C5.4408 13.1534 4.80759 14.1977 4.3262 15.2868C4.11418 15.7719 3.9337 16.2763 3.77792 16.7864ZM25.6403 0.0725098H0V17.1152H25.6353L25.6403 0.0725098Z" fill="#FB8C00"/>
<path fill-rule="evenodd" clip-rule="evenodd" d="M14.2724 10.8573C13.7502 10.4419 12.9889 10.5271 12.572 11.0475C12.1552 11.5678 12.2406 12.3264 12.7628 12.7417C13.2851 13.1572 14.0465 13.072 14.4632 12.5517C14.8802 12.0312 14.7947 11.2727 14.2724 10.8573Z" fill="#FB8C00"/>
</g>
<path d="M37.7941 3.72533V5.7111H34.5478V21.6231H32.5796V5.7111H29.3333V3.72533H37.7941Z" fill="#FB8C00"/>
<path d="M45.1229 3.72533C45.6171 3.72533 46.0346 3.8027 46.3754 3.95743C46.7332 4.09497 47.0144 4.29269 47.2189 4.55058C47.4404 4.79129 47.6023 5.08356 47.7046 5.42742C47.8068 5.75408 47.8579 6.10654 47.8579 6.48478V7.74845C47.8579 8.55652 47.7131 9.16686 47.4234 9.57949C47.1507 9.97493 46.7844 10.25 46.3243 10.4047C46.7844 10.5767 47.1507 10.869 47.4234 11.2816C47.7131 11.677 47.8579 12.2788 47.8579 13.0868V18.8636C47.8579 19.3622 47.7812 19.792 47.6279 20.1531C47.4916 20.497 47.2956 20.7806 47.04 21.0041C46.8014 21.2105 46.5117 21.3652 46.1709 21.4683C45.8471 21.5715 45.4978 21.6231 45.1229 21.6231H41.3142V3.72533H45.1229ZM45.8897 12.8289C45.8897 12.3819 45.7619 12.0381 45.5063 11.7974C45.2677 11.5395 44.9695 11.4105 44.6116 11.4105H43.2824V19.6373H45.1229C45.3444 19.6373 45.5233 19.5857 45.6597 19.4826C45.813 19.3622 45.8897 19.1559 45.8897 18.8636V12.8289ZM45.8897 6.48478C45.8897 6.27847 45.8301 6.09794 45.7108 5.94321C45.6085 5.78847 45.4126 5.7111 45.1229 5.7111H43.2824V9.42476H44.6116C44.9695 9.42476 45.2677 9.30441 45.5063 9.06371C45.7619 8.80581 45.8897 8.45336 45.8897 8.00635V6.48478Z" fill="#FB8C00"/>
<path d="M55.9597 3.57059C56.4539 3.57059 56.8714 3.64796 57.2122 3.8027C57.5701 3.94024 57.8512 4.13796 58.0557 4.39585C58.2773 4.63655 58.4392 4.92883 58.5414 5.27269C58.6436 5.59935 58.6948 5.9518 58.6948 6.33004V19.0184C58.6948 19.3966 58.6436 19.7577 58.5414 20.1015C58.4392 20.4282 58.2773 20.7205 58.0557 20.9784C57.8512 21.2191 57.5701 21.4168 57.2122 21.5715C56.8714 21.709 56.4539 21.7778 55.9597 21.7778H54.4516C53.9574 21.7778 53.5314 21.709 53.1735 21.5715C52.8327 21.4168 52.5515 21.2191 52.33 20.9784C52.1255 20.7205 51.9721 20.4282 51.8699 20.1015C51.7676 19.7577 51.7165 19.3966 51.7165 19.0184V6.33004C51.7165 5.9518 51.7676 5.59935 51.8699 5.27269C51.9721 4.92883 52.1255 4.63655 52.33 4.39585C52.5515 4.13796 52.8327 3.94024 53.1735 3.8027C53.5314 3.64796 53.9574 3.57059 54.4516 3.57059H55.9597ZM55.9597 19.792C56.2324 19.792 56.4283 19.7147 56.5476 19.5599C56.6669 19.4052 56.7265 19.2247 56.7265 19.0184V6.33004C56.7265 6.12373 56.6669 5.94321 56.5476 5.78847C56.4283 5.63373 56.2324 5.55637 55.9597 5.55637H54.4516C54.1619 5.55637 53.9574 5.63373 53.8381 5.78847C53.7359 5.94321 53.6847 6.12373 53.6847 6.33004V19.0184C53.6847 19.2247 53.7359 19.4052 53.8381 19.5599C53.9574 19.7147 54.1619 19.792 54.4516 19.792H55.9597Z" fill="#FB8C00"/>
<path d="M68.1339 1.33337V2.64863H64.4019V1.33337H68.1339ZM67.7249 21.6231V10.25L64.8109 13.2158V21.6231H62.8427V3.72533H64.8109V10.8174L67.7249 7.74845V3.72533H69.6932V21.6231H67.7249Z" fill="#FB8C00"/>
<path d="M85.1836 19.3278C85.0643 19.9812 84.7831 20.5313 84.34 20.9784C83.914 21.4082 83.292 21.6231 82.4741 21.6231H81.0937V19.6373H82.4741C82.6956 19.6373 82.866 19.5857 82.9853 19.4826C83.1046 19.3794 83.1812 19.2591 83.2153 19.1215L83.8032 15.9237H82.0395L79.2789 3.72533H81.2982L83.4454 13.9379H84.1355L85.976 3.72533H87.9698L85.1836 19.3278Z" fill="#FB8C00"/>
<path d="M98.2404 3.72533V21.6231H96.2722V5.7111H94.0228L93.4349 19.1473C93.4008 19.9726 93.2219 20.5915 92.8981 21.0041C92.5914 21.4168 92.029 21.6231 91.2111 21.6231H90.1375V19.6373H90.9554C91.1599 19.6373 91.2877 19.6115 91.3389 19.5599C91.407 19.4912 91.4496 19.3536 91.4667 19.1473L92.1313 3.72533H98.2404Z" fill="#FB8C00"/>
<path d="M106.573 3.57059C107.067 3.57059 107.485 3.64796 107.826 3.8027C108.184 3.94024 108.465 4.13796 108.669 4.39585C108.891 4.63655 109.053 4.92883 109.155 5.27269C109.257 5.59935 109.308 5.9518 109.308 6.33004V19.0184C109.308 19.3966 109.257 19.7577 109.155 20.1015C109.053 20.4282 108.891 20.7205 108.669 20.9784C108.465 21.2191 108.184 21.4168 107.826 21.5715C107.485 21.709 107.067 21.7778 106.573 21.7778H105.065C104.571 21.7778 104.145 21.709 103.787 21.5715C103.446 21.4168 103.165 21.2191 102.944 20.9784C102.739 20.7205 102.586 20.4282 102.483 20.1015C102.381 19.7577 102.33 19.3966 102.33 19.0184V6.33004C102.33 5.9518 102.381 5.59935 102.483 5.27269C102.586 4.92883 102.739 4.63655 102.944 4.39585C103.165 4.13796 103.446 3.94024 103.787 3.8027C104.145 3.64796 104.571 3.57059 105.065 3.57059H106.573ZM106.573 19.792C106.846 19.792 107.042 19.7147 107.161 19.5599C107.28 19.4052 107.34 19.2247 107.34 19.0184V6.33004C107.34 6.12373 107.28 5.94321 107.161 5.78847C107.042 5.63373 106.846 5.55637 106.573 5.55637H105.065C104.775 5.55637 104.571 5.63373 104.452 5.78847C104.349 5.94321 104.298 6.12373 104.298 6.33004V19.0184C104.298 19.2247 104.349 19.4052 104.452 19.5599C104.571 19.7147 104.775 19.792 105.065 19.792H106.573Z" fill="#FB8C00"/>
<path d="M117.265 3.72533C117.759 3.72533 118.177 3.8027 118.517 3.95743C118.875 4.09497 119.156 4.29269 119.361 4.55058C119.582 4.79129 119.744 5.08356 119.847 5.42742C119.949 5.75408 120 6.10654 120 6.48478V7.74845C120 8.55652 119.855 9.16686 119.565 9.57949C119.293 9.97493 118.926 10.25 118.466 10.4047C118.926 10.5767 119.293 10.869 119.565 11.2816C119.855 11.677 120 12.2788 120 13.0868V18.8636C120 19.3622 119.923 19.792 119.77 20.1531C119.634 20.497 119.438 20.7806 119.182 21.0041C118.943 21.2105 118.654 21.3652 118.313 21.4683C117.989 21.5715 117.64 21.6231 117.265 21.6231H113.456V3.72533H117.265ZM118.032 12.8289C118.032 12.3819 117.904 12.0381 117.648 11.7974C117.41 11.5395 117.112 11.4105 116.754 11.4105H115.424V19.6373H117.265C117.486 19.6373 117.665 19.5857 117.802 19.4826C117.955 19.3622 118.032 19.1559 118.032 18.8636V12.8289ZM118.032 6.48478C118.032 6.27847 117.972 6.09794 117.853 5.94321C117.751 5.78847 117.555 5.7111 117.265 5.7111H115.424V9.42476H116.754C117.112 9.42476 117.41 9.30441 117.648 9.06371C117.904 8.80581 118.032 8.45336 118.032 8.00635V6.48478Z" fill="#FB8C00"/>
<defs>
<clipPath id="clip0">
<path d="M0 12C0 5.41263 5.34012 0.0725098 11.9275 0.0725098H25.6403V11.1073C25.6403 18.1877 19.9005 23.9275 12.8201 23.9275H11.9275C5.34013 23.9275 0 18.5874 0 12Z" fill="white"/>
</clipPath>
</defs>
</svg>
